<svg width="46" height="46" viewBox="0 0 46 46" fill="none" xmlns="http://www.w3.org/2000/svg">
<rect width="46" height="46" rx="8" fill="#7828C8"/>
<path d="M13.2882 30.62V27.5L27.0882 27.524C27.7922 27.524 28.3282 27.364 28.6962 27.044C29.0802 26.708 29.2722 26.172 29.2722 25.436C29.2722 24.7 29.0802 24.172 28.6962 23.852C28.3282 23.516 27.7922 23.348 27.0882 23.348H18.4962C16.7202 23.348 15.3362 22.924 14.3442 22.076C13.3682 21.212 12.8802 19.948 12.8802 18.284C12.8802 16.62 13.3682 15.364 14.3442 14.516C15.3362 13.652 16.7202 13.22 18.4962 13.22H31.9842V16.34L18.9042 16.316C18.2162 16.316 17.6802 16.476 17.2962 16.796C16.9122 17.1 16.7202 17.596 16.7202 18.284C16.7202 18.972 16.9122 19.476 17.2962 19.796C17.6802 20.1 18.2162 20.252 18.9042 20.252H27.4962C29.2722 20.252 30.6482 20.692 31.6242 21.572C32.6162 22.436 33.1122 23.724 33.1122 25.436C33.1122 27.132 32.6162 28.42 31.6242 29.3C30.6482 30.18 29.2722 30.62 27.4962 30.62H13.2882Z" fill="white"/>
</svg>
